<svg xmlns="http://www.w3.org/2000/svg" version="1.1" xmlns:xlink="http://www.w3.org/1999/xlink" xmlns:svgjs="http://svgjs.com/svgjs" width="1920" height="1080" preserveAspectRatio="none" viewBox="0 0 1920 1080"><g mask="url(&quot;#SvgjsMask1073&quot;)" fill="none"><rect width="1920" height="1080" x="0" y="0" fill="rgba(230, 230, 230, 1)"></rect><path d="M174.041,1036.565C267.568,1041.602,349.205,979.434,397.229,899.02C446.645,816.275,462.798,714.697,416.864,629.969C368.912,541.519,274.496,481.724,174.041,487.334C81.018,492.529,14.023,570.541,-25.95,654.698C-60.106,726.608,-47.995,806.506,-11.06,877.03C29.444,954.369,86.864,1031.87,174.041,1036.565" fill="rgba(56, 107, 96, 0.12)" class="triangle-float1"></path><path d="M613.163,400.527C682.491,402.457,754.424,378.846,789.289,318.891C824.306,258.675,810.853,183.438,773.653,124.546C739.049,69.763,677.834,44.099,613.163,40.061C538.7,35.412,451.828,37.914,413.752,102.074C375.247,166.958,411.329,246.799,453.245,309.533C489.764,364.19,547.453,398.697,613.163,400.527" fill="rgba(56, 107, 96, 0.12)" class="triangle-float2"></path><path d="M1916.065,1090.537C2006.819,1095.438,2085.41,1034.372,2132.286,956.508C2180.881,875.789,2201.271,775.798,2154.935,693.761C2107.962,610.596,2011.505,569.944,1916.065,573.695C1826.9,577.199,1747.286,631.396,1707.644,711.341C1671.821,783.584,1697.991,864.487,1736.832,935.153C1777.652,1009.421,1831.441,1085.967,1916.065,1090.537" fill="rgba(56, 107, 96, 0.12)" class="triangle-float2"></path><path d="M1368.383,337.99C1430.798,334.11,1492.737,312.767,1524.548,258.927C1556.866,204.229,1547.733,138.376,1520.131,81.153C1487.448,13.397,1443.391,-59.085,1368.383,-64.822C1286.023,-71.122,1210.704,-17.643,1170.287,54.394C1130.722,124.913,1128.231,214.395,1174.535,280.684C1215.89,339.888,1296.304,342.47,1368.383,337.99" fill="rgba(56, 107, 96, 0.12)" class="triangle-float3"></path><path d="M736.939,556.854C799.917,557.526,869.851,553.788,904.13,500.952C940.693,444.595,931.179,369.777,895.059,313.134C861.494,260.498,799.361,237.942,736.939,238.762C676.126,239.56,618.005,265.57,585.852,317.194C551.753,371.941,541.424,442.885,575.82,497.446C608.538,549.345,675.591,556.199,736.939,556.854" fill="rgba(56, 107, 96, 0.12)" class="triangle-float3"></path><path d="M1641.813,875.512C1728.358,882.23,1824.326,855.992,1864.903,779.255C1903.901,705.503,1859.67,620.782,1813.115,551.552C1773.157,492.133,1713.264,452.197,1641.813,447.506C1560.11,442.142,1466.839,454.89,1426.557,526.175C1386.648,596.801,1429.045,679.662,1471.601,748.726C1511.379,813.282,1566.213,869.644,1641.813,875.512" fill="rgba(56, 107, 96, 0.12)" class="triangle-float3"></path></g><defs><mask id="SvgjsMask1073"><rect width="1920" height="1080" fill="#ffffff"></rect></mask><style>
            @keyframes float1 {
                0%{transform: translate(0, 0)}
                50%{transform: translate(-10px, 0)}
                100%{transform: translate(0, 0)}
            }

            .triangle-float1 {
                animation: float1 5s infinite;
            }

            @keyframes float2 {
                0%{transform: translate(0, 0)}
                50%{transform: translate(-5px, -5px)}
                100%{transform: translate(0, 0)}
            }

            .triangle-float2 {
                animation: float2 4s infinite;
            }

            @keyframes float3 {
                0%{transform: translate(0, 0)}
                50%{transform: translate(0, -10px)}
                100%{transform: translate(0, 0)}
            }

            .triangle-float3 {
                animation: float3 6s infinite;
            }
        </style></defs></svg>