<?xml version="1.0" encoding="utf-8"?>
<!-- Generator: Adobe Illustrator 16.0.0, SVG Export Plug-In . SVG Version: 6.00 Build 0)  -->
<!DOCTYPE svg PUBLIC "-//W3C//DTD SVG 1.1//EN" "http://www.w3.org/Graphics/SVG/1.1/DTD/svg11.dtd">
<svg version="1.1" id="Calque_1" xmlns="http://www.w3.org/2000/svg" xmlns:xlink="http://www.w3.org/1999/xlink" x="0px" y="0px"
	 width="150px" height="150px" viewBox="0 0 150 150" enable-background="new 0 0 150 150" xml:space="preserve">
<g>
	<g>
		<path fill-rule="evenodd" clip-rule="evenodd" fill="#FEBD00" d="M1,1c48.833,0,97.666,0.034,146.5-0.083
			c2.982-0.008,3.591,0.6,3.584,3.583c-0.119,47.667-0.119,95.333,0,143c0.007,2.982-0.602,3.591-3.584,3.583
			c-47.666-0.118-95.333-0.118-143,0c-2.983,0.008-3.591-0.6-3.583-3.583C1.034,98.667,1,49.833,1,1z"/>
		<path fill-rule="evenodd" clip-rule="evenodd" fill="#FEFDF9" d="M40,64.1c0.336-0.021,0.673-0.043,1.009-0.063
			c10.423-0.753,20.869-1.139,31.274-1.862c1.935-3.055,2.129-6.481,2.225-9.947c0.199-7.225-0.503-14.469,0.451-21.678
			c0.053-1.367,0.035-2.742,0.49-4.06c0.113-0.843,0.306-1.609,1.432-1.464c2.07,9.316,4.141,18.633,6.211,27.949
			c1.243,0.822,1.885,1.909,1.512,3.441c-0.088,0.903-0.107,1.812-0.172,2.717c-0.044,0.462-0.156,0.905-0.316,1.34
			c-0.811,2.479-3.744,2.62-5.031,4.581c-0.479,0.576-0.863,1.227-1.438,1.729c-0.452,0.307-0.943,0.499-1.479,0.591
			c-0.836,0.108-1.673,0.12-2.513,0.173c-10.69,1.735-21.317-0.173-31.968-0.511c-0.582-0.087-1.124-0.287-1.623-0.601
			C39.357,65.676,39.42,64.895,40,64.1z"/>
		<path fill-rule="evenodd" clip-rule="evenodd" fill="#FEF7E2" d="M74.742,66.128c0.774-0.064,1.549-0.13,2.324-0.194
			c0.42,0.467,0.662,1.014,0.729,1.638c-0.553,9.628-0.189,19.268-0.297,28.902c-0.02,1.825,0.079,3.659-0.402,5.447
			c-0.059,0.582-0.104,1.168-0.137,1.752c-0.264,1.068-0.195,2.415-1.899,2.298c-2.003-8.995-4.006-17.991-6.009-26.987
			c-1.007-0.792-1.52-1.847-1.649-3.107c-0.22-0.957-0.606-1.891-0.421-2.908c0.136-0.743,0.55-1.368,0.86-2.039
			C69.361,68.214,72.288,67.513,74.742,66.128z"/>
		<path fill-rule="evenodd" clip-rule="evenodd" fill="#FEFDF9" d="M76.896,67.238c0.057-0.435,0.113-0.869,0.169-1.305
			c0.001,0,0.081-0.08,0.081-0.08c1.982-1.616,4.361-1.344,6.658-1.341c10.748,0.012,21.498-0.189,32.24,0.318
			c0.615,0.119,1.23,0.238,1.846,0.357c0.622,1.071-0.34,1.281-0.922,1.696c-7.188,1.407-14.375,2.815-21.561,4.224
			c-1.668,0.997-3.81-0.416-5.384,1.057l0.138-0.042c-1.471,0.503-2.785,1.354-4.232,1.921c-0.424,0.181-0.863,0.302-1.32,0.361
			c-0.699,0.051-1.393,0.038-2.087-0.064c-3.116-0.729-4.356-3.28-5.629-5.8C76.699,68.107,76.69,67.672,76.896,67.238z"/>
		<path fill-rule="evenodd" clip-rule="evenodd" fill="#FEFDF9" d="M74.048,63.875c-1.347,1.231-3.021,1.12-4.661,1.121
			c-8.049,0.005-16.099,0.002-24.148,0.001c-1.483,0-2.973,0.031-4.23-0.961c7.328-1.688,14.657-3.374,21.985-5.061
			c0.59-0.965,1.451-1.45,2.581-1.455c1.019-0.017,2.039-0.02,3.057,0.021c0.502,0.018,1,0.084,1.492,0.191
			c2.388,0.745,3.369,2.763,4.333,4.798C74.504,63.033,74.367,63.482,74.048,63.875z"/>
		<path fill-rule="evenodd" clip-rule="evenodd" fill="#FED355" d="M116.045,64.831c-1.599,1.032-3.399,1.183-5.227,1.175
			c-11.225-0.046-22.447-0.101-33.672-0.152c0.031-0.734,0.081-1.46,0.851-1.857c8.86-2.564,17.602-0.184,26.67,0.314
			c-4.986-0.489-9.747-0.766-14.461-1.396c-2.644-0.354-5.765-0.024-7.382-3.054c-0.006-0.298,0.053-0.583,0.179-0.854
			c1.792-1.344,3.545-2.808,6.046-1.938c0.395,1.994,2.086,1.724,3.487,2.066C100.368,61.05,108.446,61.954,116.045,64.831z"/>
		<path fill-rule="evenodd" clip-rule="evenodd" fill="#FED356" d="M85.096,78.899c-1.869,0.402-1.869,1.945-2.184,3.396
			c-1.281,5.899-2.641,11.782-3.972,17.671c-1.086,0.226-1.488-0.477-1.788-1.318C76.678,91.8,78.895,85.246,79.404,78.5
			c0.117-1.563,1.022-3.184,2.842-3.797C84.639,75.119,85.463,76.604,85.096,78.899z"/>
		<path fill-rule="evenodd" clip-rule="evenodd" fill="#FED252" d="M77.879,98.653c0.354,0.438,0.708,0.875,1.063,1.313
			c-0.271,0.714-0.541,1.428-0.813,2.143c-0.713,0.003-0.877,1.409-1.857,0.726c-0.057-11.115-0.129-22.23-0.137-33.346
			c0-0.75,0.497-1.5,0.762-2.25c0.072,0.267,0.104,0.537,0.098,0.813c3.205,4.649,2.072,9.832,1.848,14.908
			C78.611,88.196,77.044,93.351,77.879,98.653z"/>
		<path fill-rule="evenodd" clip-rule="evenodd" fill="#FED355" d="M69.907,59.135c-0.295,0.003-0.58-0.051-0.854-0.159
			c-1.447-1.714-2.675-3.506-2.097-5.936c3.372-0.999,1.659-4.156,2.56-6.21c1.093-2.489,1.694-5.193,2.508-7.804
			c0.276,0.084,0.552,0.167,0.829,0.25c0.27,0.189,0.715,0.392,0.723,0.624C73.787,46.582,74.568,53.382,69.907,59.135z"/>
		<path fill-rule="evenodd" clip-rule="evenodd" fill="#FED356" d="M69.193,72.166c-0.378,0.345-0.757,0.688-1.135,1.033
			c-1.463,1.275-2.841,0.831-4.191-0.204c-5.111-0.229-10.06-1.264-14.871-2.984c-0.322-0.59-0.251-1.129,0.211-1.617
			C56.3,67.36,63.222,67.247,69.193,72.166z"/>
		<path fill-rule="evenodd" clip-rule="evenodd" fill="#FED14F" d="M88.929,72.887c0.755,3.791,4.579,6.104,5.046,10.513
			c-1.984-0.121-3.075-1.212-4.074-2.476c-1.387-1.387-2.734-2.811-4.192-4.126c-1.177-1.061-2.06-2.201-0.573-3.691l-0.13-0.029
			C86.269,72.107,87.595,72.414,88.929,72.887z"/>
		<path fill-rule="evenodd" clip-rule="evenodd" fill="#FEF7E2" d="M66.956,53.04c2.81,1.232,1.931,3.769,2.097,5.936
			c-1.062-0.016-2.123-0.031-3.185-0.047c-0.812-1.519-2.536-2.224-3.345-3.747c-0.461-1.445-1.858-2.438-1.958-4.058
			c0.245-0.686,0.715-1.098,1.444-1.197C63.658,50.964,65.307,52.002,66.956,53.04z"/>
		<path fill-rule="evenodd" clip-rule="evenodd" fill="#FEF4D8" d="M85.135,73.106c1.248,2.813,4.749,4.253,4.766,7.817
			c-2.057,0.404-3.199-1.36-4.805-2.024c-1.256-1.025-2.511-2.051-2.23-3.945c-0.527-0.612-0.521-1.236-0.04-1.87
			C83.595,73.092,84.365,73.1,85.135,73.106z"/>
		<path fill-rule="evenodd" clip-rule="evenodd" fill="#FEF7E1" d="M89.049,57.067c-1.36,2.688-3.914,1.655-6.046,1.938
			c0.042-1.065,0.085-2.131,0.128-3.197c2.158-0.3,3.337-1.922,4.607-3.422c1.134-0.693,1.949-1.987,3.52-1.848
			c0.688,0.293,1.207,0.677,0.816,1.541C91.066,53.742,90.059,55.405,89.049,57.067z"/>
		<path fill-rule="evenodd" clip-rule="evenodd" fill="#FEF5DB" d="M63.867,72.995c1.397,0.067,2.794,0.136,4.191,0.204
			c0.273,0.685,0.547,1.368,0.821,2.053c-0.32,0.309-0.613,0.642-0.883,0.997c-1.073,1.465-2.757,2.302-3.846,3.753
			c-1.057,0.713-2.114,1.126-3.188,0.036C60.533,77.114,63.724,75.683,63.867,72.995z"/>
		<path fill-rule="evenodd" clip-rule="evenodd" fill="#FECD3E" d="M60.963,80.038c0.949-0.359,1.897-0.719,2.845-1.078
			c0.721-0.54,1.429-0.597,2.12,0.053c-1.267,3.126-3.996,4.206-6.951,4.97c-0.395-1.893,1.234-2.763,2.047-4.045L60.963,80.038z"/>
		<path fill-rule="evenodd" clip-rule="evenodd" fill="#FED049" d="M91.061,51.083c-0.866,0.685-1.732,1.369-2.6,2.054
			c-1.381,0.729-1.528-0.183-1.598-1.199c1.402-2.171,3.605-3.19,5.89-4.093C93.908,49.823,92.35,50.382,91.061,51.083z"/>
		<path fill-rule="evenodd" clip-rule="evenodd" fill="#FEDB75" d="M44.866,69.117c-2.634-0.655-5.464-0.571-7.868-2.091
			c-0.381-0.464-0.355-0.903,0.077-1.319c1-0.254,2-0.411,2.991,0.036l-0.012,0.452c2.312,0.97,5.215-0.147,7.184,2.036
			C46.888,69.708,45.959,69.634,44.866,69.117z"/>
		<path fill-rule="evenodd" clip-rule="evenodd" fill="#FEC00A" d="M63.08,54.731c1.936,0.731,4.924,0.763,2.788,4.198
			c-0.958,0.015-1.916,0.03-2.873,0.046c-0.343-0.935-0.687-1.87-1.03-2.805C62.281,55.647,62.404,54.976,63.08,54.731z"/>
		<path fill-rule="evenodd" clip-rule="evenodd" fill="#FEC92E" d="M86.863,51.938c0.532,0.399,1.064,0.8,1.598,1.199
			c-1.793,0.86-1.706,5.468-5.33,2.672c-0.014-0.944-0.025-1.89-0.039-2.834C84.512,53.221,85.888,53.306,86.863,51.938z"/>
		<path fill-rule="evenodd" clip-rule="evenodd" fill="#FED459" d="M72.024,39.026c0.048-2.873,0.637-5.625,1.849-8.237
			c1.078,0.435,1.18,1.476,1.486,2.392c-0.106,1.009-0.388,1.994-0.36,3.02c-0.189,1.83-0.001,4.071-3.039,2.772L72.024,39.026z"/>
		<path fill-rule="evenodd" clip-rule="evenodd" fill="#FEE18B" d="M62.008,49.927c-0.46,0.339-0.921,0.678-1.382,1.018
			c-0.774,0.189-1.276-0.306-1.811-0.72c-0.773-0.928-1.547-1.854-2.521-3.022C59.19,46.829,60.707,48.169,62.008,49.927z"/>
		<path fill-rule="evenodd" clip-rule="evenodd" fill="#FECF45" d="M58.815,50.225c0.604,0.24,1.209,0.479,1.812,0.72
			c0.788,1.281,2.824,1.754,2.453,3.787c-0.372,0.479-0.743,0.958-1.115,1.438C60.915,54.188,59.865,52.207,58.815,50.225z"/>
		<path fill-rule="evenodd" clip-rule="evenodd" fill="#FEE6A0" d="M91.061,51.083c0.564-1.079,1.129-2.158,1.693-3.238
			c1.162-1.092,2.348-1.271,1.911,0.713c-0.286,1.301-1.688,2.356-2.591,3.522C91.736,51.748,91.398,51.415,91.061,51.083z"/>
		<path fill-rule="evenodd" clip-rule="evenodd" fill="#FED766" d="M74.809,32.957c-0.312-0.722-0.623-1.443-0.935-2.167
			c-0.043-1.743,0.318-3.384,1.229-4.887c0.478-0.554,0.738-0.466,0.783,0.264c-0.005,1.309-0.009,2.617-0.013,3.926
			C75.027,30.866,76.141,32.366,74.809,32.957z"/>
		<path fill-rule="evenodd" clip-rule="evenodd" fill="#FEECB5" d="M75.06,105.971c0.369-0.69,0.737-1.38,1.106-2.07
			c1.629,0.174,1.392,1.179,1.004,2.252c-0.252,0.991,0.555,2.798-1.098,2.714C74.713,108.797,74.996,107.11,75.06,105.971z"/>
		<path fill-rule="evenodd" clip-rule="evenodd" fill="#FEC211" d="M65.928,79.013c-0.707-0.018-1.414-0.035-2.12-0.053
			c1.127-1.563,2.089-3.307,4.168-3.838c1.14,1.676-0.141,2.73-0.999,3.894C66.627,79.015,66.278,79.014,65.928,79.013z"/>
		<path fill-rule="evenodd" clip-rule="evenodd" fill="#FEF0C8" d="M61.024,79.938c-0.047,1.67-0.939,2.912-2.047,4.045
			c-0.542-0.209-1.935,0.349-1.3-0.966C58.342,81.64,59.36,80.363,61.024,79.938z"/>
		<path fill-rule="evenodd" clip-rule="evenodd" fill="#FEF0C7" d="M37.133,66.134c-0.074,0.293-0.119,0.591-0.135,0.893
			c-0.781-0.024-1.566-0.01-2.342-0.085c-0.781-0.077-1.781-0.311-1.589-1.238c0.187-0.905,1.207-0.739,1.988-0.597
			C35.61,65.728,36.746,65.175,37.133,66.134z"/>
		<path fill-rule="evenodd" clip-rule="evenodd" fill="#FEFDF9" d="M37.133,66.134c-0.692-0.343-1.385-0.686-2.078-1.027
			c1.632-0.414,3.443,0.048,4.945-1.007c0.022,0.548,0.044,1.096,0.065,1.644C39.088,65.874,38.11,66.004,37.133,66.134z"/>
		<path fill-rule="evenodd" clip-rule="evenodd" fill="#FED355" d="M44.866,69.117c0.69-0.321,1.381-0.643,2.071-0.964
			c1.103-0.745,1.98-0.935,2.064,0.836C49,69.33,48.998,69.67,48.996,70.011C47.534,70.108,46.13,69.937,44.866,69.117z"/>
		<path fill-rule="evenodd" clip-rule="evenodd" fill="#FEC82A" d="M66.977,79.016c0.333-1.298,0.666-2.596,0.999-3.894
			c0.31-0.016,0.611,0.027,0.903,0.13c0.057,1.244,0.114,2.488,0.171,3.731C68.359,78.994,67.668,79.005,66.977,79.016z"/>
		<path fill-rule="evenodd" clip-rule="evenodd" fill="#FEDB76" d="M77.17,106.152c-0.335-0.751-0.67-1.501-1.004-2.252
			c0.035-0.355,0.07-0.711,0.105-1.066c0.559-0.396,0.863-1.441,1.857-0.727C77.81,103.456,77.489,104.804,77.17,106.152z"/>
		<path fill-rule="evenodd" clip-rule="evenodd" fill="#FEF8E9" d="M75.886,26.167c-0.259-0.093-0.521-0.182-0.783-0.264
			c0.161-1.04-0.103-2.517,1.204-2.719c0.783-0.121,0.688,1.099,0.574,1.841C76.549,25.406,76.217,25.787,75.886,26.167z"/>
		<path fill-rule="evenodd" clip-rule="evenodd" fill="#FEEBB3" d="M116.969,66.885c0.307-0.565,0.613-1.131,0.922-1.696
			c0.695-0.126,1.547,0.014,1.434,0.763C119.117,67.31,117.922,66.965,116.969,66.885z"/>
		<path fill-rule="evenodd" clip-rule="evenodd" fill="#FEFCF6" d="M90.024,72.165c1.554-1.571,3.511-1.089,5.382-1.057
			C93.712,71.965,91.911,72.283,90.024,72.165z"/>
		<path fill-rule="evenodd" clip-rule="evenodd" fill="#FEFCF6" d="M88.929,72.887c-1.308,0.063-2.616,0.127-3.924,0.19
			c1.516-1.415,3.363-1.039,5.157-0.955C89.752,72.377,89.34,72.632,88.929,72.887z"/>
		<path fill-rule="evenodd" clip-rule="evenodd" fill="#FEC00C" d="M49.002,68.989c-0.688-0.278-1.376-0.558-2.064-0.836
			c-2.459-0.073-4.707-0.894-6.884-1.958c11.563-0.022,23.126-0.045,34.688-0.067c-1.191,2.618-3.538,4.174-5.55,6.038
			C62.462,71.107,55.732,70.049,49.002,68.989z"/>
		<path fill-rule="evenodd" clip-rule="evenodd" fill="#FEBF05" d="M82.824,59.86c8.404,0.481,16.408,3.003,24.586,4.828
			c-9.82-0.465-19.666,1.605-29.413-0.692C79.047,61.965,81.468,61.534,82.824,59.86z"/>
		<path fill-rule="evenodd" clip-rule="evenodd" fill="#FEC727" d="M74.809,32.957c0.354-0.954,0.709-1.909,1.064-2.864
			c0.053,10.574,0.109,21.147,0.15,31.721c0.006,1.283,0.307,2.934-1.975,2.062c-0.039-0.283-0.067-0.568-0.085-0.854
			c-2.545-7.854-0.064-15.668,0.242-23.496c0.057-1.467,0.536-2.91-0.06-4.361C74.366,34.428,74.587,33.692,74.809,32.957z"/>
		<path fill-rule="evenodd" clip-rule="evenodd" fill="#FEBE03" d="M82.825,73.084c0.013,0.624,0.026,1.247,0.04,1.87
			c-2.518,7.722-3.941,15.673-4.986,23.701c-1.791-4.647-0.578-9.471-0.779-14.205c-0.232-5.458-0.087-10.932-0.105-16.399
			C78.938,69.729,80.881,71.406,82.825,73.084z"/>
		<path fill-rule="evenodd" clip-rule="evenodd" fill="#FEC10D" d="M74.145,35.163c1.287,9.295,1.666,18.583-0.182,27.857
			c-1.352-1.295-2.704-2.59-4.056-3.886c0.019-4.966,1.646-9.661,2.527-14.478c0.371-2.028,0.555-3.858-0.473-5.685
			C74.321,38.639,73.895,36.707,74.145,35.163z"/>
	</g>
</g>
</svg>
