<?xml version="1.0" encoding="utf-8"?>
<!-- Generator: Adobe Illustrator 16.0.0, SVG Export Plug-In . SVG Version: 6.00 Build 0)  -->
<!DOCTYPE svg PUBLIC "-//W3C//DTD SVG 1.1//EN" "http://www.w3.org/Graphics/SVG/1.1/DTD/svg11.dtd">
<svg version="1.1" id="Calque_1" xmlns="http://www.w3.org/2000/svg" xmlns:xlink="http://www.w3.org/1999/xlink" x="0px" y="0px"
	 width="150px" height="150px" viewBox="0 0 150 150" enable-background="new 0 0 150 150" xml:space="preserve">
<g>
	<g>
		<path fill-rule="evenodd" clip-rule="evenodd" fill="#1C819E" d="M1,76C1,52,1.044,28,0.935,4C0.923,1.499,1.5,0.932,4,0.937
			c48,0.086,96,0.086,144,0c2.5-0.005,3.068,0.563,3.064,3.063c-0.087,48-0.087,96-0.001,144c0.005,2.499-0.563,3.068-3.063,3.063
			c-48-0.086-96-0.086-144,0c-2.499,0.005-3.077-0.563-3.065-3.063C1.044,124,1,100,1,76z M75.705,51.371
			c0.076,2.774-1.395,4.625-2.662,6.543c-2.661,4.027-5.398,8.006-8.033,12.051c-5.305,8.146-4.26,11.023,5.016,13.48
			c2.363,0.626,3.134,1.551,0.951,3.102c-2.42,1.72-2.725,4.021-2.577,6.596c0.135,2.354-0.631,4.553-2.565,5.649
			c-3.811,2.161-5.75,5.699-7.894,9.196c-1.919,3.133-0.926,5.84,2.696,5.885c13.155,0.161,26.315,0.152,39.47-0.015
			c3.405-0.043,4.918-2.96,2.979-5.459c-2.37-3.053-3.617-7.046-7.623-8.828c-1.614-0.718-3.068-2.467-2.977-4.371
			c0.201-4.13-0.793-7.646-4.676-10.341c6.208-0.857,6.193-0.866,9.546-5.921c0.672-1.013,1.723-1.683,2.929-1.697
			c2.59-0.029,2.822-1.616,2.82-3.66c-0.006-8.4-1.152-16.615-4.174-24.475c-3.691-9.603-10.068-17.052-19.664-20.808
			c-4.968-1.944-9.23-4.082-12.029-8.684c-0.07-0.115-0.583,0.039-1.491,0.123c2.441,6.513-1.278,8.831-6.827,10.202
			c-3.156,0.78-6.025,2.138-3.982,6.655c1.124,2.483,0.099,5.244-1.215,7.653c-1.274,2.339-2.715,4.595-3.854,6.996
			c-1.237,2.609,1.152,7.691,4.243,9.068c3.646,1.626,4.673-0.966,5.55-3.674c0.543-1.679,1.535-3.157,3.291-3.454
			C67.153,52.475,71.304,51.233,75.705,51.371z"/>
		<path fill-rule="evenodd" clip-rule="evenodd" fill="#F9FBFC" d="M75.705,51.371c-4.401-0.138-8.552,1.104-12.751,1.814
			c-1.756,0.297-2.748,1.775-3.291,3.454c-0.877,2.708-1.905,5.3-5.55,3.674c-3.091-1.377-5.48-6.459-4.243-9.068
			c1.139-2.401,2.58-4.657,3.854-6.996c1.313-2.409,2.338-5.17,1.215-7.653c-2.043-4.518,0.826-5.875,3.982-6.655
			c5.549-1.371,9.268-3.689,6.827-10.202c0.909-0.084,1.421-0.238,1.491-0.123c2.799,4.602,7.061,6.739,12.029,8.684
			c9.596,3.756,15.973,11.205,19.664,20.808c3.021,7.859,4.168,16.074,4.174,24.475c0.002,2.044-0.23,3.631-2.82,3.66
			c-1.206,0.015-2.257,0.685-2.929,1.697c-3.353,5.055-3.338,5.063-9.546,5.921c3.883,2.695,4.877,6.211,4.676,10.341
			c-0.092,1.904,1.362,3.653,2.977,4.371c4.006,1.782,5.253,5.775,7.623,8.828c1.939,2.499,0.427,5.416-2.979,5.459
			c-13.154,0.167-26.314,0.176-39.47,0.015c-3.622-0.045-4.616-2.752-2.696-5.885c2.143-3.497,4.083-7.035,7.894-9.196
			c1.934-1.097,2.7-3.295,2.565-5.649c-0.148-2.575,0.157-4.876,2.577-6.596c2.183-1.551,1.412-2.476-0.951-3.102
			c-9.276-2.457-10.321-5.334-5.016-13.48c2.635-4.045,5.372-8.023,8.033-12.051C74.31,55.996,75.781,54.146,75.705,51.371z
			 M59.36,40.669c0.363,1.745,1.375,2.831,3.103,2.608c1.649-0.212,2.701-1.338,2.434-3.131c-0.222-1.489-1.268-2.351-2.768-2.309
			C60.353,37.888,59.537,39.038,59.36,40.669z"/>
		<path fill-rule="evenodd" clip-rule="evenodd" fill="#3A91AA" d="M59.36,40.669c0.177-1.631,0.993-2.781,2.769-2.831
			c1.5-0.042,2.546,0.819,2.768,2.309c0.267,1.793-0.785,2.919-2.434,3.131C60.735,43.5,59.723,42.414,59.36,40.669z"/>
	</g>
</g>
</svg>
