<?xml version="1.0" encoding="utf-8"?>
<!-- Generator: Adobe Illustrator 16.0.0, SVG Export Plug-In . SVG Version: 6.00 Build 0)  -->
<!DOCTYPE svg PUBLIC "-//W3C//DTD SVG 1.1//EN" "http://www.w3.org/Graphics/SVG/1.1/DTD/svg11.dtd">
<svg version="1.1" id="Calque_1" xmlns="http://www.w3.org/2000/svg" xmlns:xlink="http://www.w3.org/1999/xlink" x="0px" y="0px"
	 width="150px" height="150px" viewBox="0 0 150 150" enable-background="new 0 0 150 150" xml:space="preserve">
<g>
	<g>
		<path fill-rule="evenodd" clip-rule="evenodd" fill="#FEBD00" d="M151,76c0,24-0.044,48,0.065,72
			c0.012,2.501-0.565,3.068-3.065,3.063c-48-0.086-96-0.086-144,0C1.5,151.068,0.932,150.5,0.937,148c0.086-48,0.086-96,0-144
			C0.932,1.5,1.5,0.932,4,0.937c48,0.086,96,0.086,144,0c2.5-0.005,3.077,0.563,3.065,3.063C150.956,28,151,52,151,76z"/>
		<path fill-rule="evenodd" clip-rule="evenodd" fill="#FEFEFE" d="M75.65,96.41c-1.331,0-2.682,0.148-3.987-0.031
			c-2.564-0.354-7.631,1.852-4.284-4.649c1.021-1.984-1.031-5.083-2.633-7.252c-1.973-2.672-4.14-5.199-6.155-7.841
			c-7.22-9.466-6.222-22.021,2.332-29.714c8.659-7.787,21.844-7.735,30.469,0.121c8.439,7.686,9.326,20.3,2.091,29.756
			c-2.22,2.9-4.692,5.644-6.597,8.737c-1.484,2.41-3.301,4.993-1.183,8.225c1.394,2.126-0.513,2.533-2.074,2.592
			c-2.657,0.099-5.319,0.027-7.979,0.027C75.65,96.391,75.65,96.4,75.65,96.41z"/>
		<path fill-rule="evenodd" clip-rule="evenodd" fill="#FEFDFB" d="M76.113,103.938c2.662,0,5.324-0.016,7.985,0.007
			c1.06,0.01,2.028,0.282,2.103,1.576c0.059,1.003-0.617,1.51-1.514,1.645c-2.013,0.305-2.929,1.981-4.291,3.163
			c-2.746,2.384-5.778,2.303-8.605,0.035c-1.14-0.915-1.752-2.432-3.314-2.916c-1.2-0.372-2.934-0.421-2.338-2.4
			c0.441-1.467,1.891-1.081,2.986-1.11c2.328-0.063,4.658-0.02,6.988-0.02C76.113,103.924,76.113,103.931,76.113,103.938z"/>
		<path fill-rule="evenodd" clip-rule="evenodd" fill="#FEFAEE" d="M76.198,101.872c-2.637,0-5.275,0.02-7.912-0.011
			c-1.031-0.012-2.101-0.277-2.223-1.477c-0.169-1.67,1.201-1.765,2.337-1.775c5.109-0.05,10.22-0.044,15.329-0.023
			c1.172,0.005,2.561,0.121,2.482,1.687c-0.074,1.452-1.372,1.629-2.597,1.625c-2.473-0.009-4.945-0.003-7.418-0.003
			C76.198,101.887,76.198,101.879,76.198,101.872z"/>
		<path fill-rule="evenodd" clip-rule="evenodd" fill="#FEF3D4" d="M77.901,27.471c0,1.287-0.003,2.27,0.001,3.253
			c0.004,1.205-0.172,2.517-1.563,2.652c-1.754,0.17-2.052-1.263-2.111-2.654c-0.042-0.98-0.184-1.999,0.011-2.94
			c0.444-2.151-1.4-6.029,2.102-5.934C79.062,21.922,77.423,25.694,77.901,27.471z"/>
		<path fill-rule="evenodd" clip-rule="evenodd" fill="#FEFAEE" d="M55.959,41.054c-0.252,1.133-1.306,1.541-2.205,0.983
			c-2.702-1.675-4.892-3.983-6.715-6.567c-0.635-0.899-0.23-1.972,1.032-2.262C49.506,32.879,56.17,39.393,55.959,41.054z"/>
		<path fill-rule="evenodd" clip-rule="evenodd" fill="#FEF9EC" d="M97.768,42.225c-1.118-0.183-2.141-0.875-1.447-1.929
			c1.889-2.871,4.213-5.458,7.301-7.066c0.934-0.486,1.795,0.479,1.74,1.692C105.301,36.298,99.059,42.276,97.768,42.225z"/>
		<path fill-rule="evenodd" clip-rule="evenodd" fill="#FEFAEF" d="M56.006,83.508c0.167,1.514-6.331,7.917-7.771,7.741
			c-1.28-0.156-1.815-1.148-1.228-2.079c1.755-2.784,4.168-5.027,6.876-6.857C54.828,81.674,55.686,82.532,56.006,83.508z"/>
		<path fill-rule="evenodd" clip-rule="evenodd" fill="#FEFAEE" d="M95.754,85.163c0.846-3.068,1.922-3.595,3.238-2.469
			c1.986,1.7,3.803,3.604,5.635,5.478c0.715,0.732,1.153,1.703,0.305,2.604c-0.836,0.888-1.82,0.557-2.629-0.107
			C99.922,88.708,97.579,86.701,95.754,85.163z"/>
		<path fill-rule="evenodd" clip-rule="evenodd" fill="#FEFAEF" d="M41.033,60.457c1.862,0.893,5.69-1.31,5.645,1.871
			c-0.042,2.914-3.801,1.494-5.879,1.537c-1.881,0.039-5.346,1.308-5.288-1.653C35.563,59.521,39.021,61.061,41.033,60.457z"/>
		<path fill-rule="evenodd" clip-rule="evenodd" fill="#FEFBF1" d="M110.998,64.085c-1.803-0.874-5.488,1.365-5.495-1.969
			c-0.005-2.513,3.519-1.543,5.423-1.419c1.991,0.131,5.614-1.515,5.617,1.725C116.545,65.145,113.003,63.423,110.998,64.085z"/>
		<path fill-rule="evenodd" clip-rule="evenodd" fill="#F9BC08" d="M71.811,46.748c0.004,1.715-0.972,2.452-1.99,2.952
			c-3.914,1.925-6.597,4.87-8.016,9.009c-0.509,1.484-1.448,2.906-3.245,2.277c-2.092-0.732-1.773-2.612-1.173-4.205
			c1.959-5.205,5.585-8.911,10.563-11.326C69.848,44.533,71.058,45.268,71.811,46.748z"/>
	</g>
</g>
</svg>
