<?xml version="1.0" encoding="utf-8"?>
<!-- Generator: Adobe Illustrator 16.0.0, SVG Export Plug-In . SVG Version: 6.00 Build 0)  -->
<!DOCTYPE svg PUBLIC "-//W3C//DTD SVG 1.1//EN" "http://www.w3.org/Graphics/SVG/1.1/DTD/svg11.dtd">
<svg version="1.1" id="Calque_1" xmlns="http://www.w3.org/2000/svg" xmlns:xlink="http://www.w3.org/1999/xlink" x="0px" y="0px"
	 width="150px" height="150px" viewBox="0 0 150 150" enable-background="new 0 0 150 150" xml:space="preserve">
<g>
	<g>
		<path fill-rule="evenodd" clip-rule="evenodd" fill="#1C809D" d="M75.479,151c-23.814,0-47.627-0.037-71.44,0.058
			c-2.4,0.01-3.114-0.417-3.109-3.015c0.097-47.96,0.107-95.92-0.018-143.88c-0.008-2.952,0.826-3.232,3.42-3.229
			c47.793,0.089,95.587,0.093,143.381-0.006c2.686-0.006,3.377,0.422,3.37,3.278c-0.116,47.793-0.129,95.587,0.019,143.38
			c0.01,3.222-0.938,3.49-3.684,3.478C123.438,150.953,99.459,151,75.479,151z"/>
		<path fill-rule="evenodd" clip-rule="evenodd" fill="#FAFCFC" d="M84.398,82.495c0.009,7.195-3.838,13.199-9.331,15.62
			c-1.407,0.62-2.246,0.288-2.771-0.982c-0.377-0.913-0.54-1.914-0.8-2.875c-1.74-6.409-1.868-6.611-7.295-3.199
			c-3.142,1.976-5.536,1.617-7.994-0.757c-1.315-1.27-2.598-2.573-3.908-3.849c-2.771-2.701-3.124-5.359-0.854-8.813
			c3.218-4.896,2.924-5.209-2.333-6.576c-6.727-1.75-6.386-1.51-2.28-7.336c3.362-4.771,7.321-6.854,12.995-5.869
			c4.017,0.696,6.732-0.921,9.287-4.148c4.425-5.592,8.996-11.16,14.749-15.507c7.542-5.699,16.362-7.866,25.547-9.076
			c3.573-0.472,3.843,1.408,3.546,4.054c-1.272,11.346-4.637,21.796-13.142,29.941c-3.36,3.218-6.731,6.476-10.435,9.27
			C85.609,75.237,83.195,78.354,84.398,82.495z"/>
		<path fill-rule="evenodd" clip-rule="evenodd" fill="#F3F8F9" d="M43.101,102.985c-3.55,0.854-4.399-1.012-4.094-4.647
			c0.434-5.171,1.883-9.446,7.184-11.484c1.186-0.456,2.438-1.791,3.456-0.135c1.123,1.828-0.819,2.309-1.847,2.762
			c-3.371,1.486-5.236,3.83-5.499,7.597c-0.155,2.218,0.463,3.046,2.726,2.779c3.547-0.417,6.352-1.699,7.768-5.29
			c0.415-1.052,0.796-2.97,2.691-1.985c1.784,0.927,0.62,2.233,0.086,3.402C53.233,101.107,50.106,102.932,43.101,102.985z"/>
		<path fill-rule="evenodd" clip-rule="evenodd" fill="#1C819E" d="M108,32.451c2.043-0.39,1.973,1.172,1.719,2.777
			c-1.484,9.384-4.363,18.177-11.332,25.048c-8.912,8.786-18.825,16.413-28.467,24.355c-1.721,1.417-3.155,1.58-4.836,0.19
			c-0.641-0.53-1.352-0.976-1.988-1.511c-8.031-6.749-8.141-7.72-1.644-15.688c6.631-8.134,13.142-16.377,20.578-23.81
			C89.08,36.768,97.984,33.817,108,32.451z"/>
		<path fill-rule="evenodd" clip-rule="evenodd" fill="#2585A1" d="M62.277,61.226c-5.822,8.813-5.822,8.813-13.676,6.366
			C51.965,60.75,52.901,60.299,62.277,61.226z"/>
		<path fill-rule="evenodd" clip-rule="evenodd" fill="#2284A0" d="M80.789,80.184c1.555,8.226,1.083,9.313-5.836,13.461
			C71.871,85.981,71.871,85.981,80.789,80.184z"/>
		<path fill-rule="evenodd" clip-rule="evenodd" fill="#2686A2" d="M60.832,89.278c-1.96-0.022-7.886-5.718-7.831-7.446
			c0.024-0.743,0.474-1.595,0.985-2.173c0.828-0.938,1.373-0.026,1.93,0.537c1.979,2.002,3.971,3.992,5.955,5.99
			c0.539,0.543,1.593,1.004,0.804,1.938C62.181,88.709,61.322,88.985,60.832,89.278z"/>
		<path fill-rule="evenodd" clip-rule="evenodd" fill="#F2F7F9" d="M90.615,59.302c-4.241,0.093-7.69-3.262-7.696-7.483
			c-0.005-3.975,3.201-7.387,7.138-7.597c4.111-0.219,7.805,3.162,7.96,7.287C98.174,55.695,94.836,59.21,90.615,59.302z"/>
		<path fill-rule="evenodd" clip-rule="evenodd" fill="#2988A3" d="M94.968,51.871c-0.313,2.646-1.798,4.3-4.526,4.292
			c-2.732-0.008-4.439-1.646-4.391-4.389c0.048-2.673,1.67-4.438,4.423-4.418C93.207,47.377,94.632,49.129,94.968,51.871z"/>
	</g>
</g>
</svg>
