<?xml version="1.0" encoding="utf-8"?>
<!-- Generator: Adobe Illustrator 16.0.0, SVG Export Plug-In . SVG Version: 6.00 Build 0)  -->
<!DOCTYPE svg PUBLIC "-//W3C//DTD SVG 1.1//EN" "http://www.w3.org/Graphics/SVG/1.1/DTD/svg11.dtd">
<svg version="1.1" id="Calque_1" xmlns="http://www.w3.org/2000/svg" xmlns:xlink="http://www.w3.org/1999/xlink" x="0px" y="0px"
	 width="150px" height="150px" viewBox="0 0 150 150" enable-background="new 0 0 150 150" xml:space="preserve">
<g>
	<g>
		<path fill-rule="evenodd" clip-rule="evenodd" fill="#005543" d="M1,1c48.833,0,97.666,0.034,146.5-0.083
			c2.982-0.008,3.591,0.6,3.584,3.583c-0.119,47.667-0.119,95.333,0,143c0.007,2.982-0.602,3.591-3.584,3.583
			c-47.666-0.118-95.333-0.118-143,0c-2.983,0.008-3.591-0.6-3.583-3.583C1.034,98.667,1,49.833,1,1z"/>
		<path fill-rule="evenodd" clip-rule="evenodd" fill="#F0F5F4" d="M76.967,86.104c-16.269-0.445-29.321-7.544-41.08-17.679
			c-2.112-1.819-2.248-3.422-0.071-5.31c27.256-23.632,54.518-23.386,81.479,0.111c1.93,1.682,2.028,3.247,0.066,4.961
			C105.666,78.398,92.621,85.51,76.967,86.104z"/>
		<path fill-rule="evenodd" clip-rule="evenodd" fill="#D7E4E1" d="M70.037,40.685c0.138,1.331,0.28,2.438-0.903,2.827
			c-1.525,0.502-2.114-0.643-2.265-1.817c-0.381-2.968-2.386-5.776-0.958-8.906c0.119-0.26,1.053-0.491,1.254-0.319
			C69.819,34.727,68.859,38.244,70.037,40.685z"/>
		<path fill-rule="evenodd" clip-rule="evenodd" fill="#D7E4E1" d="M86.396,32.16c0.45,0.492,1.229,0.955,1.217,1.394
			c-0.099,3.27-0.783,6.45-2.056,9.466c-0.219,0.518-1.004,0.932-1.689,0.506c-0.375-0.232-0.874-0.689-0.87-1.041
			c0.038-3.289,0.792-6.446,2.067-9.467C85.214,32.665,85.831,32.509,86.396,32.16z"/>
		<path fill-rule="evenodd" clip-rule="evenodd" fill="#D7E4E1" d="M70.006,91.373c-0.459,2.077-0.846,4.17-1.405,6.217
			c-0.287,1.052-0.686,2.441-2.236,1.916c-1.37-0.465-1.256-1.701-0.966-2.9c0.461-1.906,0.837-3.834,1.308-5.737
			c0.306-1.239,0.491-2.866,2.343-2.386C70.534,88.867,70.136,90.251,70.006,91.373z"/>
		<path fill-rule="evenodd" clip-rule="evenodd" fill="#D7E4E1" d="M82.892,90.908c-0.062-1.277,0.017-2.342,1.271-2.517
			c1.181-0.165,1.709,0.72,1.951,1.745c0.563,2.388,1.133,4.773,1.641,7.173c0.234,1.103-0.248,2.081-1.314,2.295
			c-1.176,0.236-1.721-0.803-1.965-1.765C83.873,95.465,83.377,93.063,82.892,90.908z"/>
		<path fill-rule="evenodd" clip-rule="evenodd" fill="#E6EEEC" d="M52.319,48.894c-1.176,0.124-1.858-0.426-2.218-1.164
			c-1.399-2.872-4.484-4.892-4.339-8.511c0.01-0.258,0.946-0.796,1.154-0.679c3.194,1.807,4.189,5.33,6.134,8.113
			C53.677,47.548,53.368,48.56,52.319,48.894z"/>
		<path fill-rule="evenodd" clip-rule="evenodd" fill="#E6EEEC" d="M107.787,40.094c-2.021,3.071-3.323,6.42-6.055,8.61
			c-1.141,0.915-2.542-0.352-1.865-1.626c1.535-2.894,3.317-5.725,5.432-8.213C106.422,37.544,107.1,39.197,107.787,40.094z"/>
		<path fill-rule="evenodd" clip-rule="evenodd" fill="#EAF0EF" d="M40.058,55.089c-0.24,1.11-1.108,1.929-2.063,1.171
			c-2.587-2.051-5.039-4.292-7.385-6.618c-0.938-0.93-0.177-1.907,0.852-2.286C32.562,46.95,40.113,53.774,40.058,55.089z"/>
		<path fill-rule="evenodd" clip-rule="evenodd" fill="#EAF0EF" d="M114.719,56.546c-1.588-0.335-2.498-1.297-1.431-2.417
			c2.278-2.391,4.737-4.666,7.402-6.603c1.183-0.86,2.599,0.676,1.881,1.689C120.471,52.183,117.595,54.469,114.719,56.546z"/>
		<path fill-rule="evenodd" clip-rule="evenodd" fill="#EAF0EF" d="M40.06,76.88c0.082,1.284-7.441,8.17-8.561,7.781
			c-1.015-0.353-1.853-1.318-0.908-2.264c2.334-2.339,4.792-4.575,7.367-6.644C38.922,74.98,39.784,75.772,40.06,76.88z"/>
		<path fill-rule="evenodd" clip-rule="evenodd" fill="#EAF0EF" d="M114.225,75.477c1.117-0.074,8.525,6.515,8.465,7.535
			c-0.085,1.46-1.027,2.318-2.281,1.336c-2.473-1.939-4.822-4.063-7.031-6.301C112.26,76.917,113.063,75.964,114.225,75.477z"/>
		<path fill-rule="evenodd" clip-rule="evenodd" fill="#E6EEEC" d="M47.054,93.498c-0.967-0.061-1.486-0.622-1.593-1.54
			c-0.12-1.032,5.124-8.628,6.046-8.837c0.728-0.165,1.276,0.042,1.615,0.723C53.741,85.087,48.501,93.42,47.054,93.498z"/>
		<path fill-rule="evenodd" clip-rule="evenodd" fill="#E6EEEC" d="M107.857,91.718c-0.457,0.621-0.742,1.21-1.202,1.584
			c-0.626,0.509-1.35,0.195-1.725-0.362c-1.749-2.6-3.471-5.221-5.075-7.911c-0.219-0.368,0.099-1.406,0.49-1.69
			c0.373-0.272,1.486-0.201,1.728,0.124C104.035,86.104,105.868,88.841,107.857,91.718z"/>
		<path fill-rule="evenodd" clip-rule="evenodd" fill="#015542" d="M76.285,84.047c-10.18-0.107-18.259-8.416-18.123-18.637
			c0.132-9.88,8.371-17.989,18.301-18.016c10.11-0.025,18.415,8.31,18.375,18.444C94.798,76.004,86.494,84.153,76.285,84.047z"/>
		<path fill-rule="evenodd" clip-rule="evenodd" fill="#025643" d="M90.446,80.641c8.788-9.287,8.74-19.391-0.79-30.999
			c10.487,3.107,18.611,8.51,26.146,14.974c0.749,0.643,0.988,1.39,0.179,2.047c-7.595,6.177-15.074,12.571-25.229,14.194
			C90.664,80.871,90.549,80.717,90.446,80.641z"/>
		<path fill-rule="evenodd" clip-rule="evenodd" fill="#025643" d="M63.432,49.623c-9.397,11.113-9.593,18.048-1.219,31.667
			c-6.606-1.525-11.761-4.712-16.796-8.063c-10.839-7.212-10.826-7.615-0.159-14.854C50.591,54.753,56.188,51.653,63.432,49.623z"/>
		<path fill-rule="evenodd" clip-rule="evenodd" fill="#FCFDFC" d="M76.303,76.215c-5.835-0.091-10.401-4.742-10.351-10.546
			c0.05-5.74,4.779-10.475,10.495-10.507c5.917-0.032,10.748,4.936,10.598,10.899C86.9,71.835,82.17,76.307,76.303,76.215z"/>
		<path fill-rule="evenodd" clip-rule="evenodd" fill="#166352" d="M83.279,62.371c-0.182,2.096-1.366,3.425-3.49,3.349
			c-1.871-0.066-3.096-1.38-3.089-3.275c0.008-2.129,1.28-3.472,3.457-3.383C82.06,59.139,83.097,60.399,83.279,62.371z"/>
	</g>
</g>
</svg>
