<svg height="512" viewBox="0 0 60 60" width="512" xmlns="http://www.w3.org/2000/svg"><g id="Page-1" fill="none" fill-rule="evenodd"><g id="031---Compass" fill="rgb(0,0,0)" fill-rule="nonzero" transform="translate(-1 -1)"><path id="Shape" d="m1.748 31.968.288.075c.60618138 15.1621585 12.7588415 27.3148186 27.921 27.921l.075.288c.1143412.4410526.5123671.7490498.968.7490498s.8536588-.3079972.968-.7490498l.075-.288c15.1621585-.6061814 27.3148186-12.7588415 27.921-27.921l.288-.075c.4410526-.1143412.7490498-.5123671.7490498-.968s-.3079972-.8536588-.7490498-.968l-.288-.075c-.6061814-15.1621585-12.7588415-27.31481862-27.921-27.921l-.075-.288c-.1143412-.44105264-.5123671-.74904981-.968-.74904981s-.8536588.30799717-.968.74904981l-.075.288c-15.1621585.60618138-27.31481862 12.7588415-27.921 27.921l-.288.075c-.44105264.1143412-.74904981.5123671-.74904981.968s.30799717.8536588.74904981.968zm30.822 25.977.537-2.058c2.5547132-.2065123 5.0617185-.8093946 7.431-1.787.01 0 .02 0 .029-.006s.017-.013.028-.018c3.0223289-1.2504115 5.767882-3.085538 8.079-5.4 2.3111484-2.3077929 4.1438659-5.0492229 5.393-8.067.007-.014.018-.025.024-.04s0-.019.006-.029c.976282-2.3695439 1.5781396-4.8764969 1.784-7.431l2.058-.537c-.8532706 13.6425468-11.7265879 24.5175785-25.369 25.373zm6.211-45.731c.2450539.1016421.5204541.101742.7655816.0002776s.4398902-.2961765.5414184-.5412776l.618-1.491c2.1267432.987248 4.0884756 2.2966436 5.816 3.882l-.229.229c-.2599566.2510745-.3642126.6228779-.2726972.9725073.0915155.3496295.3645604.6226744.7141899.7141899.3496294.0915154.7214328-.0127406.9725073-.2726972l.229-.229c1.5852683 1.7275936 2.8946543 3.6893116 3.882 5.816l-1.491.618c-.5103111.2112489-.7527489.7961889-.5415 1.3065s.7961889.7527489 1.3065.5415l1.5-.621c.6173199 1.683985 1.0328849 3.4351984 1.238 5.217l-12.515-3.264 3.565-6.618c.208576-.3886596.1378696-.8680744-.174028-1.179972s-.7913124-.382604-1.179972-.174028l-6.618 3.565-3.264-12.513c1.7817642.20532818 3.5329527.62088719 5.217 1.238l-.621 1.5c-.2096673.5094817.032245 1.0925754.541 1.304zm.542 12.358-1.5-.392-.392-1.5 4.11-2.215zm-2.023 1.54 2.273.593.027.007 12.605 3.288h-18.791zm14.905 5.888-14.905 3.888-3.886-3.888zm-12.882 5.428 2.215 4.11-4.11-2.215.392-1.5zm4.2 7.452c.3886596.208576.8680744.1378696 1.179972-.174028s.382604-.7913124.174028-1.179972l-3.565-6.618 12.513-3.264c-.2053282 1.7817642-.6208872 3.5329527-1.238 5.217l-1.5-.621c-.5103111-.2112489-1.0952511.0311889-1.3065.5415s.0311889 1.0952511.5415 1.3065l1.491.618c-.987248 2.1267432-2.2966436 4.0884756-3.882 5.816l-.229-.229c-.3923789-.3789722-1.0160848-.3735524-1.4018186.0121814s-.3911536 1.0094397-.0121814 1.4018186l.229.229c-1.7275936 1.5852683-3.6893116 2.8946543-5.816 3.882l-.618-1.491c-.2112489-.5103111-.7961889-.7527489-1.3065-.5415s-.7527489.7961889-.5415 1.3065l.621 1.5c-1.683985.6173199-3.4351984 1.0328849-5.217 1.238l3.264-12.513zm14.422-15.45-2.058-.537c-.2065869-2.5550244-.8094645-5.0623477-1.787-7.432 0-.009 0-.019-.006-.028s-.013-.017-.018-.027c-1.2501564-3.0227601-3.0853063-5.7686881-5.4-8.08-2.3110434-2.3150206-5.0570406-4.15021675-8.08-5.4-.01 0-.016-.014-.027-.018s-.019 0-.029-.006c-2.3695439-.97628198-4.8764969-1.57813963-7.431-1.784l-.539-2.063c13.6454666.85262784 24.5223722 11.7295334 25.375 25.375zm-25.945-19.63 3.888 14.9-3.888 3.886zm0 23.619 3.888 3.881-3.888 14.905zm-2 18.786-3.888-14.905 3.888-3.886zm-6.781-2.419c-.2450539-.1016421-.5204541-.101742-.7655816-.0002776s-.4398902.2961765-.5414184.5412776l-.618 1.491c-2.1267432-.987248-4.0884756-2.2966436-5.816-3.882l.229-.229c.3789722-.3923789.3735524-1.0160848-.0121814-1.4018186s-1.0094397-.3911536-1.4018186-.0121814l-.229.229c-1.5852683-1.7275936-2.8946543-3.6893116-3.882-5.816l1.491-.618c.5103111-.2112489.7527489-.7961889.5415-1.3065s-.7961889-.7527489-1.3065-.5415l-1.5.621c-.61731994-1.683985-1.03288486-3.4351984-1.238-5.217l12.513 3.264-3.563 6.618c-.208576.3886596-.1378696.8680744.174028 1.179972s.7913124.382604 1.179972.174028l6.618-3.565 3.264 12.513c-1.7817642-.2053282-3.5329527-.6208872-5.217-1.238l.621-1.5c.2096673-.5094817-.032245-1.0925754-.541-1.304zm-11.546-27.874-1.491-.618c.987248-2.1267432 2.2966436-4.0884756 3.882-5.816l.229.229c.3923789.3789722 1.0160848.3735524 1.4018186-.0121814s.3911536-1.0094397.0121814-1.4018186l-.229-.229c1.7275936-1.5852683 3.6893116-2.8946543 5.816-3.882l.618 1.491c.2112489.5103111.7961889.7527489 1.3065.5415s.7527489-.7961889.5415-1.3065l-.621-1.5c1.683985-.61731994 3.4351984-1.03288486 5.217-1.238l-3.264 12.515-6.618-3.565c-.3886596-.208576-.8680744-.1378696-1.179972.174028s-.382604.7913124-.174028 1.179972l3.565 6.618-12.513 3.264c.20532818-1.7817642.62088719-3.5329527 1.238-5.217l1.5.621c.3301134.1366541.7080549.0868143.9914575-.1307453.2834026-.2175595.4292108-.5697863.3825-.924-.0467108-.3542136-.2788441-.6566006-.6089575-.7932547zm-1.873 10.088h18.786l-3.886 3.888zm14.777 7.323-4.11 2.215 2.215-4.11 1.5.392zm-14.777-9.323 12.6-3.288.027-.007 2.273-.593 3.886 3.888zm10.667-9.538 4.11 2.215-.392 1.5-1.5.392zm9.533-10.662v18.786l-3.888-3.886zm-.57-5.74-.537 2.058c-2.5547554.20499099-5.0620694.80617959-7.432 1.782-.009 0-.019 0-.028.006s-.017.013-.028.018c-3.0223289 1.25041151-5.767882 3.085538-8.079 5.4-2.3150206 2.3110434-4.15021675 5.0570406-5.4 8.08 0 .01-.014.016-.018.027s0 .019-.006.029c-.97628198 2.3695439-1.57813963 4.8764969-1.784 7.431l-2.058.537c.85332476-13.6429033 11.7271977-24.51806207 25.37-25.373zm-23.317 29.047c.20658687 2.5550244.80946454 5.0623477 1.787 7.432 0 .009 0 .019.006.028.00751709.014148.01586503.0278386.025.041 1.24904538 3.0172874 3.0814013 5.7583451 5.392 8.066 2.3110434 2.3150206 5.0570406 4.1502167 8.08 5.4.01.005.016.014.027.018s.02 0 .03.006c2.3691982.9762743 4.8758209 1.5781337 7.43 1.784l.537 2.058c-13.6425131-.8538084-24.51711619-11.7275542-25.372-25.37z"/></g></g></svg>