<svg height="512" viewBox="0 0 512 512" width="512" xmlns="http://www.w3.org/2000/svg"><g id="Outline"><path d="m368 176a23.857 23.857 0 0 0 -8.846 1.7 23.986 23.986 0 0 0 -31.154-16.324v-1.376a24 24 0 0 0 -47.154-6.3 23.985 23.985 0 0 0 -32.846 22.3v67.056l-8.4 4.2a42.684 42.684 0 0 0 -4.589 73.695l21.867 14.578a15.97 15.97 0 0 1 7.122 13.315v147.156h16v-147.156a31.933 31.933 0 0 0 -14.25-26.625l-21.867-14.578a26.686 26.686 0 0 1 2.869-46.073l1.248-.624v19.056h16v-104a8 8 0 0 1 16 0v72h16v-88a8 8 0 0 1 16 0v88h16v-64a8 8 0 0 1 16 0v72h16v-56a8 8 0 0 1 16 0v68.223a144.272 144.272 0 0 1 -15.155 64.2 7.994 7.994 0 0 0 -.845 3.577v160h16v-158.138a160.389 160.389 0 0 0 16-69.639v-68.223a24.028 24.028 0 0 0 -24-24z"/><path d="m168 305.94a31.791 31.791 0 0 0 -9.372-22.627l-14.811-14.813a26.518 26.518 0 0 1 -7.817-18.869v-41.631a8 8 0 0 1 16 0v24a8 8 0 0 0 5.472 7.59l1.228.41a25.269 25.269 0 0 1 17.3 24h16a41.244 41.244 0 0 0 -24-37.5v-82.5a8 8 0 0 1 16 0v64h16v-96a8 8 0 0 1 16 0v96h16v-72a8 8 0 0 1 16 0v8h16v-8a23.992 23.992 0 0 0 -32-22.624v-1.376a24 24 0 0 0 -48 0v9.376a23.992 23.992 0 0 0 -32 22.624v41.376a23.992 23.992 0 0 0 -32 22.624v41.631a42.414 42.414 0 0 0 12.5 30.186l14.811 14.811a15.889 15.889 0 0 1 4.689 11.312v14.06h-8a8 8 0 0 0 -8 8v168h16v-160h64v-16h-48z"/><path d="m168 352h16v16h-16z"/><path d="m248 16h16v72h-16z"/><path d="m141.812 44.453h15.999v55.248h-15.999z" transform="matrix(.866 -.5 .5 .866 -15.968 84.563)"/><path d="m71.331 118h15.999v72h-15.999z" transform="matrix(.5 -.866 .866 .5 -93.702 145.702)"/><path d="m16 248h72v16h-72z"/><path d="m43.331 350h72v15.999h-72z" transform="matrix(.866 -.5 .5 .866 -168.38 87.636)"/><path d="m424.669 322h15.999v72h-15.999z" transform="matrix(.5 -.866 .866 .5 -93.703 553.701)"/><path d="m424 248h72v16h-72z"/><path d="m396.669 146h72v15.999h-72z" transform="matrix(.866 -.5 .5 .866 -19.033 236.968)"/><path d="m322 71.331h72v15.999h-72z" transform="matrix(.5 -.866 .866 .5 110.289 349.695)"/><path d="m194.165 39.088h16v32h-16z" transform="matrix(.966 -.259 .259 .966 -7.369 54.202)"/><path d="m100.921 92.922h16.001v31.999h-16.001z" transform="matrix(.707 -.707 .707 .707 -45.117 108.922)"/><path d="m47.087 186.166h16v32h-16z" transform="matrix(.259 -.966 .966 .259 -154.447 203.051)"/><path d="m39.088 301.834h32v16h-32z" transform="matrix(.966 -.259 .259 .966 -78.315 24.816)"/><path d="m293.835 47.087h32v16h-32z" transform="matrix(.259 -.966 .966 .259 176.443 340.111)"/><path d="m387.078 100.921h31.999v16.001h-31.999z" transform="matrix(.707 -.707 .707 .707 41.039 316.922)"/><path d="m440.913 194.165h32v16h-32z" transform="matrix(.966 -.259 .259 .966 -36.756 125.148)"/><path d="m448.913 293.835h16v32h-16z" transform="matrix(.259 -.966 .966 .259 39.376 670.985)"/></g></svg>