<svg id="Capa_1" enable-background="new 0 0 512 512" height="512" viewBox="0 0 512 512" width="512" xmlns="http://www.w3.org/2000/svg"><g><path d="m467 0h-422c-24.813 0-45 20.187-45 45v300c0 24.813 20.187 45 45 45h196v34.58c-17.459 6.192-30 22.865-30 42.42 0 24.813 20.187 45 45 45s45-20.187 45-45c0-19.555-12.541-36.228-30-42.42v-34.58h196c24.813 0 45-20.187 45-45v-300c0-24.813-20.187-45-45-45zm-211 482c-8.271 0-15-6.729-15-15s6.729-15 15-15 15 6.729 15 15-6.729 15-15 15zm226-137c0 8.271-6.729 15-15 15h-422c-8.271 0-15-6.729-15-15v-300c0-8.271 6.729-15 15-15h422c8.271 0 15 6.729 15 15z"/><path d="m436 240h-25v-45c0-8.284-6.716-15-15-15h-125v-30h75c8.284 0 15-6.716 15-15v-60c0-8.284-6.716-15-15-15h-180c-8.284 0-15 6.716-15 15v60c0 8.284 6.716 15 15 15h75v30h-125c-8.284 0-15 6.716-15 15v45h-25c-8.284 0-15 6.716-15 15v60c0 8.284 6.716 15 15 15h80c8.284 0 15-6.716 15-15v-60c0-8.284-6.716-15-15-15h-25v-30h110v30h-25c-8.284 0-15 6.716-15 15v60c0 8.284 6.716 15 15 15h80c8.284 0 15-6.716 15-15v-60c0-8.284-6.716-15-15-15h-25v-30h110v30h-25c-8.284 0-15 6.716-15 15v60c0 8.284 6.716 15 15 15h80c8.284 0 15-6.716 15-15v-60c0-8.284-6.716-15-15-15zm-255-150h150v30h-150zm-40 210h-50v-30h50zm140 0h-50v-30h50zm140 0h-50v-30h50z"/></g></svg>